<svg xmlns="http://www.w3.org/2000/svg" xmlns:xlink="http://www.w3.org/1999/xlink" xml:space="preserve" version="1.1" style="shape-rendering:geometricPrecision;text-rendering:geometricPrecision;image-rendering:optimizeQuality;" viewBox="0 0 60000 60000" x="0px" y="0px" fill-rule="evenodd" clip-rule="evenodd"><defs><style type="text/css">
   
    .fil0 {fill:black;fill-rule:nonzero}
   
  </style></defs><g><path class="fil0" d="M31852 4149c165,-220 477,-265 697,-100 220,165 265,477 100,697 -421,562 -382,2665 -289,4294 1379,-933 2645,-883 3154,-863 53,2 97,4 110,4 2070,3 3643,618 4736,1623 627,577 1093,1280 1400,2068 303,776 452,1634 451,2536 -3,2396 -1076,5106 -3146,7354 -344,374 -741,738 -1145,1110 -1122,1032 -2313,2126 -2248,3368 134,2556 -236,4060 -837,4976 -647,987 -1521,1296 -2350,1471 -806,170 -2096,-605 -2876,-1084 -839,1896 -1822,3519 -2904,4924 -1548,4531 -2125,7901 -2149,10800 -24,2921 513,5394 1182,8105 66,268 -98,538 -365,604 -268,66 -538,-98 -604,-365 -684,-2775 -1234,-5311 -1209,-8351 21,-2502 433,-5327 1483,-8875 -3692,3795 -8159,5663 -12014,7273 -671,280 -1324,553 -1904,806 -252,110 -546,-5 -656,-258 -110,-252 5,-546 258,-656 649,-283 1275,-545 1919,-814 8500,-3550 20080,-8387 18859,-33713 -2,-47 -16,-218 -34,-447 -115,-1470 -425,-5412 381,-6487zm-20217 3155c-2,-275 219,-500 494,-502 275,-2 500,219 502,494 11,1123 211,5233 904,8713 391,1965 931,3702 1664,4500 187,203 173,518 -29,705 -203,187 -518,173 -705,-29 -877,-954 -1488,-2860 -1910,-4981 -705,-3538 -908,-7748 -919,-8900zm44201 17198l-4254 -3901c-162,-148 -174,-400 -26,-563l736 -802 -5600 -1253 1731 5472 734 -800c148,-162 400,-174 563,-26l4255 3903 1861 -2030zm-3422 -4220l4254 3901c162,148 174,400 26,563l-2400 2617c-148,162 -400,174 -563,26l-4255 -3903 -920 1003c-47,56 -110,99 -185,123 -210,66 -434,-50 -500,-260l-2148 -6788 1 0c-20,-64 -25,-135 -9,-206 47,-214 260,-350 474,-302l6927 1550c73,12 144,45 203,99 162,148 174,400 26,563l-931 1016zm-2508 16692l-4254 -3901c-162,-148 -174,-400 -26,-563l736 -802 -5600 -1253 1731 5472 734 -800c148,-162 400,-174 563,-26l4255 3903 1861 -2030zm-3422 -4220l4254 3901c162,148 174,400 26,563l-2400 2617c-148,162 -400,174 -563,26l-4255 -3903 -920 1003c-47,56 -110,99 -185,123 -210,66 -434,-50 -500,-260l-2148 -6788 1 0c-20,-64 -25,-135 -9,-206 47,-214 260,-350 474,-302l6927 1550c73,12 144,45 203,99 162,148 174,400 26,563l-931 1016zm-14311 -5261c-196,232 -145,580 110,745 211,135 488,94 651,-96 458,-536 838,-1136 1146,-1770l7 -14c128,-270 -4,-587 -286,-687 -242,-84 -505,26 -616,256 -269,559 -608,1095 -1011,1567zm1691 -4249c-5,347 330,593 660,484 201,-69 336,-252 340,-464l1 -63 0 -38 0 -38 0 -38 0 -39 0 -39 -1 -39 -1 -39 -1 -39 -1 -39 -2 -39 -2 -39c-7,-135 12,-260 53,-389 80,-247 232,-472 395,-671 209,-257 118,-639 -185,-775 -207,-90 -445,-34 -589,140 -247,303 -453,626 -574,1000 -78,247 -112,487 -99,746 2,33 3,65 4,98 2,54 3,109 3,163l0 65c0,30 -1,60 -1,90zm2745 -4301c-204,268 -94,653 220,773 207,77 437,12 572,-163l22 -28 32 -42 32 -42 32 -42 31 -43 31 -43 31 -43 30 -43 30 -43 30 -43 29 -43 29 -43 29 -43 28 -43 28 -44 28 -44 27 -44 27 -44 27 -44 26 -44 26 -44 26 -44 25 -44 25 -44 25 -44 24 -44 24 -45 24 -45 23 -45 23 -45 22 -45 22 -45 22 -45 21 -45 21 -45 21 -45 20 -45 20 -45 20 -45 19 -45 19 -45 22 -54c82,-206 21,-439 -152,-578 -263,-208 -649,-106 -775,205l-17 41 -17 39 -17 39 -17 39 -17 39 -18 39 -18 39 -18 39 -19 39 -19 39 -19 39 -20 39 -20 39 -20 39 -20 39 -21 39 -21 39 -21 39 -22 39 -22 39 -22 39 -23 39 -23 38 -23 38 -24 38 -24 38 -24 38 -24 38 -25 38 -25 38 -25 38 -26 38 -26 38 -26 38 -27 38 -27 38 -27 37 -27 37 -28 37 -28 37 -28 37 -22 28zm1298 -4262c66,348 459,519 759,331 173,-111 261,-311 224,-514 -17,-97 -38,-191 -61,-287 -21,-83 -43,-163 -68,-245 -26,-81 -53,-160 -83,-239 -31,-79 -63,-155 -97,-233 -36,-77 -72,-151 -112,-225 -41,-74 -82,-145 -127,-217 -38,-59 -77,-117 -117,-174 -41,-57 -83,-112 -128,-168 -68,-83 -137,-162 -211,-239 -252,-255 -679,-173 -819,157 -77,187 -37,398 104,543 123,128 229,265 325,415 44,70 83,140 121,213 38,75 71,149 103,226 32,79 60,157 85,239 29,94 53,187 74,283 9,45 18,89 26,134zm-17326 29463c46,-272 304,-455 576,-408 272,46 455,304 408,576 -329,1897 -438,3555 -365,5092 73,1534 327,2954 723,4375 73,265 -82,540 -348,613 -265,73 -540,-82 -613,-348 -415,-1489 -682,-2980 -758,-4594 -77,-1612 35,-3341 376,-5306zm11862 -33910c9,118 18,227 25,324 16,201 28,350 34,478 415,8610 -617,14917 -2500,19636 4,2 7,4 11,7l49 30c648,399 1780,1096 2221,1003 619,-130 1267,-354 1718,-1041 496,-757 798,-2067 677,-4379 -89,-1710 1279,-2968 2568,-4153 389,-358 771,-709 1087,-1052 1897,-2061 2881,-4520 2884,-6678 1,-776 -126,-1512 -384,-2173 -253,-649 -635,-1226 -1146,-1697 -916,-844 -2263,-1359 -4060,-1362 -54,0 -97,-2 -149,-4 -471,-19 -1740,-69 -3033,1060zm-27295 23308c-250,-115 -360,-412 -244,-662 115,-250 412,-360 662,-244 1643,761 3072,1203 4489,1229 1409,26 2835,-358 4485,-1247 243,-131 545,-40 676,203 131,243 40,545 -203,676 -1807,973 -3389,1394 -4974,1364 -1578,-29 -3130,-503 -4891,-1319zm11997 -4854c275,1 497,225 496,500 -1,275 -225,497 -500,496 -866,-3 -1684,-423 -2503,-843 -1322,-678 -2644,-1355 -3784,568 -21,37 -48,71 -79,102 -39,39 -84,71 -133,95l0 0c-3,2 -6,3 -10,5l-4 2 -5 2c-3,1 -5,2 -8,3l-1 1c-60,25 -123,38 -186,38 -4,0 -8,0 -11,0 -63,-1 -126,-13 -186,-38l-1 -1c-3,-1 -5,-2 -8,-3l-5 -2 -4 -2c-3,-1 -6,-3 -10,-5l0 0c-49,-24 -94,-56 -133,-95 -31,-31 -57,-65 -79,-102 -1140,-1924 -2462,-1246 -3784,-568 -819,420 -1637,839 -2503,843 -275,1 -499,-221 -500,-496 -1,-275 221,-499 496,-500 628,-3 1341,-368 2054,-733 1587,-814 3174,-1627 4668,311 1494,-1938 3081,-1125 4668,-311 713,365 1426,731 2054,733zm-4208 -5512c490,0 943,79 1280,206 483,182 781,491 781,883 0,392 -299,701 -781,883 -337,127 -724,-469 -1213,-469 -490,0 -1009,596 -1346,469 -483,-182 -781,-491 -781,-883 0,-392 299,-701 781,-883 337,-127 790,-206 1280,-206zm-5212 60c490,0 943,79 1280,206 483,182 781,491 781,883 0,392 -299,701 -781,883 -337,127 -790,-548 -1280,-548 -490,0 -943,675 -1280,548 -483,-182 -781,-491 -781,-883 0,-392 299,-701 781,-883 337,-127 790,-206 1280,-206z"></path></g></svg>