<svg xmlns="http://www.w3.org/2000/svg" xmlns:xlink="http://www.w3.org/1999/xlink" version="1.1" x="0px" y="0px" viewBox="0 0 100 100" enable-background="new 0 0 100 100" xml:space="preserve"><g><path d="M55.5,45.4c0,0,0.5-2-2.5-2c-3.5,0-2.6,2-2.6,2C52.6,44.8,55.5,45.4,55.5,45.4z"></path><path d="M60.8,55.5c0,0-0.1-0.1-0.1-0.1c-0.3-0.2-4.4-3-5.6-3.7c-1.5-0.9-3.4-0.9-5.5,0.1c-2.1-1-3.9-1.1-5.5-0.1   c-1.2,0.7-5.2,3.5-5.6,3.7c0,0-0.1,0.1-0.1,0.1c-0.1,0.1-0.1,0.1-0.2,0.2c-0.1,0.1-0.1,0.3-0.1,0.4c0,0.1,0,0.1,0,0.2   c0,0.1,0,0.1,0.1,0.2c0.2,0.5,3.1,6.7,11.3,6.5c0.1,0,0.3,0,0.4,0c7.9,0,10.7-6,11-6.5c0-0.1,0-0.1,0.1-0.2c0-0.1,0-0.1,0-0.2   c0-0.1,0-0.3-0.1-0.4C60.9,55.7,60.9,55.6,60.8,55.5z M45.1,53.2c1.1-0.7,2.5-0.5,4.2,0.4c0.2,0.1,0.5,0.1,0.8,0   c1.7-0.9,3.1-1,4.2-0.4c0.5,0.3,1.8,1.2,3,2C55.2,55,52.9,55,52.8,55c-0.1,0-0.2,0-0.2,0c0,0-1.5,0.4-2.9,0.5   c-1.3-0.1-2.8-0.5-2.9-0.5c-0.1,0-0.1,0-0.2,0c0,0,0,0,0,0c-0.1,0-2.4,0.1-4.5,0.1C43.3,54.3,44.5,53.5,45.1,53.2z M49.7,61.4   c-5.3,0.1-8-2.8-9.2-4.5c2.1-0.1,5.4-0.2,6-0.2c0.4,0.1,1.8,0.4,3.1,0.5c0,0,0.1,0,0.1,0c1.3-0.1,2.7-0.4,3.1-0.5   c0.7,0,3.9,0.1,6,0.2C57.7,58.5,55,61.5,49.7,61.4z"></path><path d="M92,22.5c-1.5-1.9-3.1-2.9-4.8-2.8c-0.6,0-1.7,0.3-2.7,0.7c0.3-2.1,0.5-3.8,0.6-5.2c0,0,0,0,0,0l0.2-1.7   c0.1-1,0.2-1.9,0.2-1.9c0-0.5-0.3-0.9-0.8-0.9c-0.5,0-0.9,0.3-0.9,0.8c0,0.1-0.1,0.9-0.2,1.8l0,0.4C78.9,10.9,66.6,5,48,5   c-19.3,0-28.9,6.4-32,9c-0.1-1-0.2-2-0.2-2c0-0.5-0.4-0.8-0.9-0.8c-0.5,0-0.8,0.4-0.8,0.9c0,0,0.1,1.3,0.2,2.4l0.1,1.1c0,0,0,0,0,0   c0.2,1.3,0.4,2.9,0.6,4.8c-0.8-0.3-1.8-0.7-2.2-0.7c-1.7-0.1-3.3,0.9-4.8,2.8c-1.7,2.3-1.9,6.2-0.6,10.4C8.9,37.3,14,43.2,20,45.4   c1.5,4.9,4.7,12.3,11.7,19.1c0.5,4.8,0.4,14-3.3,19.8c-3.1,4.7-8,7.7-14.7,9c-0.5,0-0.8,0.4-0.8,0.8c0,0.5,0.4,0.8,0.8,0.8   c0.1,0,0.2,0,0.3,0c7.2-1.4,12.5-4.6,15.8-9.7c4-6.1,4-14.9,3.8-19c2.5,2.2,5.4,4.3,8.9,6.2c4.5,2.5,10,2.4,14.5-0.3   c1.8-1.1,5.3-3.4,9.3-7.3c-0.2,4.5-0.2,14.2,4.1,20.5c3.4,5.1,8.6,8.3,15.5,9.6c0.1,0,0.2,0,0.3,0c0.5,0,0.8-0.4,0.8-0.8   c0-0.5-0.4-0.8-0.8-0.8c-6.4-1.2-11.3-4.2-14.4-8.9c-4.8-7.2-3.9-19.2-3.6-21.5c3.8-4.1,7.7-9.7,10.6-16.8   c6.2-2.2,12.5-9.1,14-13.8C93.8,28.3,93.6,24.7,92,22.5z M9.1,32.4c-1.2-3.7-1.1-7,0.3-8.9c1.1-1.4,2.2-2.2,3.2-2.2   c0,0,0.1,0,0.1,0c0.4,0,1.9,0.6,2.6,1c0.7,4.9,1.8,11,3.4,17.4c0,0.1,0.1,1.4,0.7,3.6C14.6,41.1,10.3,36.1,9.1,32.4z M77.1,45.1   C77.1,45.1,77,45.1,77.1,45.1c-2.9,7.3-6.8,12.8-10.5,16.9c0,0-0.1,0.1-0.1,0.1c-4.4,4.7-8.5,7.5-10.5,8.7   c-3.9,2.4-8.8,2.4-12.8,0.2C22.2,59.3,20.4,39.8,20.4,39.6c0-0.1,0-0.2,0-0.3c-2.3-9.4-3.6-18.4-4.1-23.3   c1.2-1.1,10.2-9.3,31.8-9.3c19.2,0,31.4,6.4,35.4,8.8c-0.5,4.8-1.7,13.9-4.2,23.2C78.6,41,77.9,43.1,77.1,45.1z M90.9,31.8   c-1.2,3.9-6.4,9.7-11.6,12.1c0.5-1.5,1-3.1,1.5-4.8c1.6-6.1,2.7-12.1,3.4-16.9c0.7-0.3,2.5-0.9,3.1-0.9c1.1,0,2.2,0.7,3.3,2.2   C91.9,25.3,92,28.3,90.9,31.8z"></path><path d="M62,23.7c-1.6,0.2-6.5,0.2-8.5-1.7c-1.7-1.6-4.5-2.9-7.4-2.6c0.1-2.3,0.2-4.8,0-5.4c0,0,0,0,0,0c0,0,0,0,0,0c0,0,0,0,0-0.1   c0,0,0,0,0-0.1c0,0,0-0.1-0.1-0.1c0,0,0,0,0,0c0,0-0.1-0.1-0.1-0.1c0,0,0,0,0,0c0,0-0.1-0.1-0.1-0.1c0,0,0,0,0,0c0,0-0.1,0-0.1-0.1   c0,0,0,0,0,0c-0.2,0-0.3,0-0.5,0c-0.3,0.1-0.5,0.4-0.6,0.7c0,0,0,0,0,0c0,0,0,0.1,0,0.1c0,0,0,0,0,0c0,0,0,0.1,0,0.1c0,0,0,0,0,0.1   c0,0.1,0.1,1-0.1,5.3c-1.6,0.4-2.9,1.2-3.9,2.3c-1.3,1.5-5.2,2.3-7.2,2.2c-0.6,0-1.2,0.2-1.6,0.6c-0.4,0.4-0.7,1-0.7,1.6v14.6   c0,1.2,0.9,2.2,2.2,2.2c0.1,0,0.2,0,0.4,0c1.4,0,5.1-0.2,7.2-2.2c0.4-0.4,0.8-0.8,1.2-1.1l0.5-0.4c0.1,2.3,2,5.2,5.2,7.6   c0.2,0.1,0.3,0.2,0.5,0.2c0.3,0,0.5-0.1,0.7-0.3c0.3-0.4,0.2-0.9-0.2-1.2c-3.4-2.5-5.2-5.8-4.2-7.5c0-0.1,0.1-0.1,0.1-0.2   c2.3-0.8,5.7-0.9,7.9,1.6c1.7,1.9,4,3.2,6.4,3.6c1.4,0.2,2.7,0.2,4-0.2c1-0.3,1.7-1.2,1.7-2.2V25.9c0-0.6-0.3-1.3-0.8-1.7   C63.3,23.8,62.6,23.6,62,23.7z M62.8,41c0,0.3-0.2,0.5-0.4,0.5c-1.1,0.3-2.2,0.3-3.4,0.2c-2-0.3-3.9-1.4-5.4-3   c-2.9-3.2-7.2-3-10-1.9c0,0,0,0,0,0c0,0,0,0,0,0c0,0,0,0-0.1,0c-0.1,0-0.1,0.1-0.2,0.1c-0.1,0.1-0.8,0.6-1.6,1.2L41,38.7   c-0.5,0.4-1,0.9-1.4,1.2c-1.4,1.4-4.3,1.8-6.4,1.7c-0.3,0-0.5-0.3-0.5-0.6V26.5c0-0.2,0.1-0.3,0.2-0.4C32.9,26,33,26,33.2,26   c2,0.1,6.7-0.6,8.6-2.8c0.9-1,2.1-1.7,3.6-1.9c0,0,0,0,0,0c0,0,0,0,0,0c2.6-0.7,5.4,0.5,6.9,2c2.6,2.5,8.5,2.3,9.9,2.1   c0.2,0,0.4,0.1,0.4,0.1c0.1,0.1,0.2,0.2,0.2,0.4V41z"></path></g></svg>