<svg xmlns="http://www.w3.org/2000/svg" xmlns:xlink="http://www.w3.org/1999/xlink" version="1.1" x="0px" y="0px" viewBox="0 0 164 164" enable-background="new 0 0 164 164" xml:space="preserve"><path fill-rule="evenodd" clip-rule="evenodd" d="M73.915,85.048c0.533,0,13.688-0.018,13.688-0.011  c1.025,0,1.979,0.652,2.312,1.679l4.409,13.548l17.831-58.565c1.138-3.737,3.703-4.133,5.454-0.092l16.975,39.174l7.714-14.261  c0.384-0.839,1.231-1.422,2.215-1.422h16.571c3.463,0,3.463,8.009,0,8.009h-12.47l-12.55,23.189  c-0.945,1.761-3.551,1.69-4.361-0.188l-15.803-36.47l-19.003,62.415c-0.555,2.368-3.917,2.544-4.679,0.199l-9.5-29.195h-8.803  C70.453,93.058,70.453,85.048,73.915,85.048L73.915,85.048z M76.498,66.205C78.163,13.677,21.1,6.333,4.186,40.167  C-12.973,74.492,28.526,91.32,22.98,114.89c-7.876,33.447,48.198,45.531,48.198,0.348c0-3.137-2.543-5.68-5.68-5.68  c-3.137,0-5.68,2.543-5.68,5.68c0,28.274-29.848,19.462-25.79,2.226C40.788,88.749,0.96,71.919,14.303,45.226  C25.97,21.885,66.451,25.831,65.182,65.85c-0.098,3.125,2.356,5.737,5.48,5.835C73.787,71.783,76.4,69.329,76.498,66.205  L76.498,66.205z M32.747,66.504c0.146,5.316-7.937,5.538-8.083,0.222c-0.507-16.248,18.149-23.348,27.404-11.998  c3.8,4.659,5.22,12.245,0.973,22.636c-2.303,5.634-3.225,10.717-2.762,14.283c0.666,5.117,4.058,3.283,7.461,1.148  c4.497-2.831,8.807,4.016,4.311,6.847c-8.893,5.578-18.31,4.428-19.791-6.949c-0.635-4.877,0.463-11.43,3.301-18.372  c2.926-7.16,2.346-11.897,0.231-14.491C41.333,54.362,32.487,58.151,32.747,66.504z"></path></svg>