<svg fill="#000000" xmlns:dc="http://purl.org/dc/elements/1.1/" xmlns:cc="http://creativecommons.org/ns#" xmlns:rdf="http://www.w3.org/1999/02/22-rdf-syntax-ns#" xmlns:svg="http://www.w3.org/2000/svg" xmlns="http://www.w3.org/2000/svg" xmlns:sodipodi="http://sodipodi.sourceforge.net/DTD/sodipodi-0.dtd" xmlns:inkscape="http://www.inkscape.org/namespaces/inkscape" version="1.1" x="0px" y="0px" viewBox="0 0 100 100"><g transform="translate(0,-952.36218)"><path style="text-indent:0;text-transform:none;direction:ltr;block-progression:tb;baseline-shift:baseline;color:#000000;enable-background:accumulate;" d="m 34.31,976.374 a 1.0001,1.0001 0 0 0 -0.125,0.031 c -4.270301,1.3116 -7.15301,3.5735 -8.71875,6.4688 -1.56575,2.8953 -1.79435,6.3442 -1.09375,9.9375 1.401219,7.1867 6.50292,15.1363 12.96875,21.75 6.465829,6.6137 14.302989,11.8761 21.53125,13.375 3.614131,0.7495 7.09579,0.5385 10.09375,-1.0312 2.99797,-1.5698 5.425521,-4.485 6.96875,-8.8438 a 1.0001,1.0001 0 0 0 -0.40625,-1.1562 l -14.3125,-8.9688 a 1.0001,1.0001 0 0 0 -0.0937,-0.062 l -0.0625,-0.062 a 1.0001,1.0001 0 0 0 -0.0312,0 1.0001,1.0001 0 0 0 -0.0625,-0.031 1.0001,1.0001 0 0 0 -0.0312,0 1.0001,1.0001 0 0 0 -0.15625,-0.094 1.0001,1.0001 0 0 0 -0.0312,0 1.0001,1.0001 0 0 0 -0.0625,0 1.0001,1.0001 0 0 0 -0.0312,0 1.0001,1.0001 0 0 0 -0.1875,-0.031 1.0001,1.0001 0 0 0 -0.1875,0.031 1.0001,1.0001 0 0 0 -0.46875,0.2188 1.0001,1.0001 0 0 0 -0.0312,0.062 1.0001,1.0001 0 0 0 -0.15625,0.1875 l -3.687501,3.6562 c -6.40329,-3.014 -11.15368,-8.2967 -15.375,-15.4375 l 3.40625,-3.4063 0.15625,-0.1562 a 1.0001,1.0001 0 0 0 0.0625,-0.062 1.0001,1.0001 0 0 0 0.0312,0 1.0001,1.0001 0 0 0 0.0312,-0.062 1.0001,1.0001 0 0 0 0.0312,-0.031 1.0001,1.0001 0 0 0 0.0312,-0.062 1.0001,1.0001 0 0 0 0,-0.031 1.0001,1.0001 0 0 0 0.0312,-0.031 1.0001,1.0001 0 0 0 0.0312,-0.062 1.0001,1.0001 0 0 0 0.0312,-0.031 1.0001,1.0001 0 0 0 0,-0.062 1.0001,1.0001 0 0 0 0,-0.062 1.0001,1.0001 0 0 0 0.0312,-0.031 1.0001,1.0001 0 0 0 0,-0.062 1.0001,1.0001 0 0 0 0,-0.031 1.0001,1.0001 0 0 0 0,-0.062 1.0001,1.0001 0 0 0 0,-0.031 1.0001,1.0001 0 0 0 0,-0.062 1.0001,1.0001 0 0 0 0,-0.031 1.0001,1.0001 0 0 0 0,-0.062 1.0001,1.0001 0 0 0 0,-0.031 1.0001,1.0001 0 0 0 -0.0312,-0.062 1.0001,1.0001 0 0 0 0,-0.031 1.0001,1.0001 0 0 0 -0.0312,-0.062 1.0001,1.0001 0 0 0 0,-0.031 1.0001,1.0001 0 0 0 -0.0625,-0.062 1.0001,1.0001 0 0 0 0,-0.031 1.0001,1.0001 0 0 0 -0.0312,-0.031 1.0001,1.0001 0 0 0 -0.125,-0.1875 1.0001,1.0001 0 0 0 -0.0312,-0.031 l -8.78125,-14.5313 a 1.0001,1.0001 0 0 0 -0.8125,-0.4687 1.0001,1.0001 0 0 0 -0.21875,0 z m -0.25,2.1875 8.09375,13.4063 -3.5625,3.5312 a 1.0001,1.0001 0 0 0 -0.15625,1.2188 c 4.56792,7.9103 9.89019,13.9476 17.3125,17.2188 a 1.0001,1.0001 0 0 0 1.09375,-0.2188 l 3.78125,-3.7812 13.15625,8.2187 c -1.40761,3.5643 -3.38066,5.7758 -5.71875,7 -2.497579,1.3078 -5.48819,1.5266 -8.78125,0.8438 -6.586121,-1.3658 -14.26458,-6.4338 -20.53125,-12.8438 -6.266671,-6.41 -11.12809,-14.1632 -12.40625,-20.7188 -0.639081,-3.2777 -0.38371,-6.2084 0.90625,-8.5937 1.20661,-2.2312 3.34779,-4.0733 6.8125,-5.2813 z" fill="#000000" fill-opacity="1" fill-rule="evenodd" stroke="none" marker="none" visibility="visible" display="inline" overflow="visible"></path><path style="text-indent:0;text-transform:none;direction:ltr;block-progression:tb;baseline-shift:baseline;color:#000000;enable-background:accumulate;" d="m 50,959.36217 c -23.73046,0 -43.0000005,19.25953 -43.0000005,43.00003 0,8.7872 2.648,16.9765 7.3168795,23.9844 l -5.0546895,16.8687 a 1.0001,1.0001 0 0 0 1.2840595,1.2322 l 16.52375,-5.7025 c 6.62275,4.1896 14.50034,6.6172 22.930001,6.6172 23.74023,0 43,-19.2598 43,-43 0,-23.7403 -19.25977,-43.00003 -43,-43.00003 z m 0,2 c 22.659771,0 41,18.34023 41,41.00003 0,22.6598 -18.340229,41 -41,41 -8.214201,0 -15.862871,-2.4108 -22.25562,-6.5588 a 1.0001,1.0001 0 0 0 -0.87063,-0.1062 l -15.13594,5.2237 4.63,-15.4515 a 1.0001,1.0001 0 0 0 -0.13156,-0.8503 c -4.62431,-6.785 -7.2362505,-14.7111 -7.2362505,-23.2569 0,-22.6595 18.3504605,-41.00003 41.0000005,-41.00003 z" fill="#000000" fill-opacity="1" fill-rule="evenodd" stroke="none" marker="none" visibility="visible" display="inline" overflow="visible"></path></g></svg>