<svg xmlns="http://www.w3.org/2000/svg" xmlns:xlink="http://www.w3.org/1999/xlink" version="1.1" x="0px" y="0px" viewBox="0 0 100 100" enable-background="new 0 0 100 100" xml:space="preserve"><g><path d="M44.5,47c0.1,0.1,0.3,0.2,0.5,0.2c0.2,0,0.5-0.1,0.6-0.3c0.3-0.4,0.2-0.9-0.2-1.1c-3.2-2.4-4.6-5-3.7-6.5   c0.2-0.4,0.1-0.9-0.3-1.1c-0.4-0.2-0.9-0.1-1.1,0.3C38.9,40.7,40.5,44,44.5,47z"></path><path d="M47,45.1c1.2-0.2,2.4-0.1,3.1,0c0.3,0.1,0.7-0.2,0.7-0.5c0-0.5-0.3-1.2-2-1.2c-1.5,0-2.2,0.4-2.4,0.8   C46.1,44.7,46.5,45.2,47,45.1z"></path><path d="M56.1,54.8C56.1,54.8,56.1,54.7,56.1,54.8c-0.4-0.3-4.2-3-5.3-3.6c-1.5-0.9-3.2-0.8-5.2,0.1c-2-1-3.7-1-5.2-0.1   c-1.1,0.7-4.9,3.3-5.2,3.5c0,0-0.1,0-0.1,0.1C35.1,54.8,35,54.9,35,55c-0.1,0.1-0.1,0.2-0.1,0.4c0,0.1,0,0.1,0,0.2   c0,0.1,0,0.1,0.1,0.2c0.2,0.5,2.9,6.2,10.3,6.2c0.1,0,0.2,0,0.4,0c7.7,0.2,10.5-5.7,10.7-6.2c0-0.1,0-0.1,0.1-0.2   c0-0.1,0-0.1,0-0.2c0-0.1,0-0.3-0.1-0.4C56.3,54.9,56.2,54.8,56.1,54.8z M41.3,52.5c1-0.6,2.4-0.5,4,0.4c0.2,0.1,0.5,0.1,0.7,0   c1.6-0.9,2.9-1,4-0.4c0.5,0.3,1.7,1.1,2.8,1.9c-2-0.1-4.1-0.1-4.3-0.1c-0.1,0-0.1,0-0.2,0c0,0-1.4,0.4-2.7,0.4   c-1.3-0.1-2.7-0.4-2.7-0.4c-0.1,0-0.1,0-0.2,0c0,0,0,0,0,0c-0.1,0-2.3,0.1-4.3,0.1C39.6,53.7,40.8,52.8,41.3,52.5z M45.6,60.3   c-5,0.1-7.6-2.7-8.6-4.2c2-0.1,5.1-0.2,5.7-0.2c0.4,0.1,1.7,0.4,2.9,0.5c0,0,0.1,0,0.1,0c1.2-0.1,2.6-0.4,2.9-0.5   c0.6,0,3.7,0.1,5.7,0.2C53.2,57.6,50.6,60.4,45.6,60.3z"></path><path d="M51.8,19.6c2.8-1.2,7-2.3,12.5-3.3c0.5-0.1,1-0.1,1.5,0.1c5,1.6,6.2,5.4,6.2,5.6c0.1,0.4,0.4,0.6,0.8,0.6   c0.1,0,0.1,0,0.2,0c0.4-0.1,0.7-0.6,0.6-1c-0.1-0.2-1.4-4.8-7.3-6.7c-0.7-0.2-1.5-0.3-2.2-0.1c-5.6,0.9-10,2.1-12.8,3.4   c-0.4,0.2-0.6,0.6-0.4,1.1C51,19.6,51.4,19.7,51.8,19.6z"></path><path d="M23.9,16.4c0.5-0.1,1-0.2,1.5-0.1c5.5,0.9,9.7,2,12.5,3.3c0.4,0.2,0.9,0,1.1-0.4c0.2-0.4,0-0.9-0.4-1.1   c-2.9-1.3-7.2-2.4-12.8-3.4c-0.8-0.1-1.5-0.1-2.2,0.1c-5.9,1.9-7.2,6.5-7.3,6.7c-0.1,0.4,0.1,0.9,0.6,1c0.1,0,0.1,0,0.2,0   c0.3,0,0.7-0.2,0.8-0.6C17.7,21.9,18.8,18,23.9,16.4z"></path><path d="M67.8,48.4c-0.3,0.2-0.6,0.4-0.8,0.6c-0.4,0.3-0.4,0.7-0.2,1.1c0.2,0.2,0.4,0.3,0.7,0.3c0.2,0,0.3,0,0.5-0.1   c0.3-0.2,0.6-0.4,0.9-0.6c0.3-0.3,0.4-0.8,0.1-1.1C68.6,48.1,68.1,48.1,67.8,48.4z"></path><path d="M60.6,52.4c-0.6,0.2-0.9,0.3-1,0.3c-0.4,0.1-0.6,0.6-0.5,1c0.1,0.3,0.4,0.6,0.8,0.6c0.1,0,0.2,0,0.2,0c0,0,0.4-0.1,1-0.4   c0.4-0.2,0.6-0.6,0.5-1C61.5,52.4,61,52.2,60.6,52.4z"></path><path d="M64.3,50.6c-0.3,0.2-0.6,0.3-0.9,0.5c-0.4,0.2-0.5,0.7-0.3,1.1c0.1,0.3,0.4,0.4,0.7,0.4c0.1,0,0.2,0,0.4-0.1   c0.3-0.2,0.6-0.3,1-0.5c0.4-0.2,0.5-0.7,0.3-1.1C65.2,50.5,64.7,50.4,64.3,50.6z"></path><path d="M26.8,49.2c-0.3-0.2-0.6-0.3-0.9-0.5c-0.4-0.2-0.9-0.1-1.1,0.3c-0.2,0.4-0.1,0.9,0.3,1.1c0.3,0.2,0.6,0.4,1,0.5   c0.1,0.1,0.2,0.1,0.4,0.1c0.3,0,0.6-0.2,0.7-0.4C27.4,49.9,27.2,49.4,26.8,49.2z"></path><path d="M23.3,47.1c-0.3-0.2-0.6-0.4-0.8-0.6c-0.3-0.3-0.8-0.2-1.1,0.1c-0.3,0.3-0.2,0.8,0.1,1.1c0.3,0.2,0.6,0.4,0.9,0.6   c0.1,0.1,0.3,0.1,0.5,0.1c0.2,0,0.5-0.1,0.7-0.3C23.7,47.8,23.6,47.3,23.3,47.1z"></path><path d="M30.6,50.8c0,0-0.4-0.1-1-0.3c-0.4-0.2-0.9,0-1,0.5c-0.2,0.4,0,0.9,0.5,1c0.7,0.3,1,0.4,1,0.4c0.1,0,0.2,0,0.2,0   c0.3,0,0.6-0.2,0.8-0.6C31.3,51.4,31,51,30.6,50.8z"></path><path d="M44.9,27.1c0.4,0,0.8-0.4,0.8-0.8v-1.1c0-0.4-0.4-0.8-0.8-0.8c-0.4,0-0.8,0.4-0.8,0.8v1.1C44.1,26.8,44.5,27.1,44.9,27.1z"></path><path d="M44.9,22.9c0.4,0,0.8-0.4,0.8-0.8V21c0-0.4-0.4-0.8-0.8-0.8c-0.4,0-0.8,0.4-0.8,0.8v1.1C44.1,22.5,44.5,22.9,44.9,22.9z"></path><path d="M44.9,35.6c0.4,0,0.8-0.4,0.8-0.8v-1.1c0-0.4-0.4-0.8-0.8-0.8c-0.4,0-0.8,0.4-0.8,0.8v1.1C44.1,35.2,44.5,35.6,44.9,35.6z"></path><path d="M44.9,31.4c0.4,0,0.8-0.4,0.8-0.8v-1.1c0-0.4-0.4-0.8-0.8-0.8c-0.4,0-0.8,0.4-0.8,0.8v1.1C44.1,31,44.5,31.4,44.9,31.4z"></path><path d="M52.9,30.2c-0.4,0.2-0.6,0.6-0.4,1c0,0,0.2,0.4,0.5,1c0.1,0.3,0.4,0.4,0.7,0.4c0.1,0,0.3,0,0.4-0.1   c0.4-0.2,0.5-0.7,0.3-1.1C54.1,31,54,30.7,54,30.7C53.8,30.3,53.3,30.1,52.9,30.2z"></path><path d="M56.2,33.9c-0.3-0.3-0.8-0.3-1.1,0c-0.3,0.3-0.3,0.8,0,1.1c0.3,0.3,0.6,0.5,0.8,0.8c0.1,0.1,0.3,0.2,0.5,0.2   c0.2,0,0.5-0.1,0.6-0.3c0.3-0.3,0.2-0.8-0.1-1.1C56.7,34.3,56.4,34.1,56.2,33.9z"></path><path d="M59.9,37.9c0.1,0,0.1,0,0.2,0c0.3,0,0.7-0.2,0.8-0.6c0.1-0.4-0.1-0.9-0.5-1c-0.3-0.1-0.6-0.2-0.9-0.3c-0.4-0.2-0.9,0-1,0.4   c-0.2,0.4,0,0.9,0.4,1C59.2,37.6,59.6,37.8,59.9,37.9z"></path><path d="M68,35.5c-0.3,0.1-0.6,0.3-0.9,0.4c-0.4,0.2-0.6,0.6-0.4,1c0.1,0.3,0.4,0.5,0.7,0.5c0.1,0,0.2,0,0.3-0.1   c0.3-0.1,0.7-0.3,1-0.5c0.4-0.2,0.6-0.7,0.4-1.1C68.9,35.5,68.4,35.3,68,35.5z"></path><path d="M63.3,38.3c0.4,0,0.8,0,1.1-0.1c0.4,0,0.8-0.4,0.7-0.9c0-0.4-0.4-0.8-0.9-0.7c-0.3,0-0.7,0.1-1,0.1c-0.4,0-0.8,0.4-0.8,0.8   C62.5,38,62.9,38.3,63.3,38.3C63.3,38.3,63.3,38.3,63.3,38.3z"></path><path d="M71.4,33.3c-0.2,0.2-0.5,0.4-0.8,0.6c-0.3,0.3-0.4,0.8-0.1,1.1c0.2,0.2,0.4,0.3,0.6,0.3c0.2,0,0.3-0.1,0.5-0.2   c0.3-0.2,0.6-0.5,0.9-0.7c0.3-0.3,0.4-0.8,0.1-1.1C72.2,33,71.7,33,71.4,33.3z"></path><path d="M31.9,36c-0.3,0.1-0.6,0.2-0.9,0.3c-0.4,0.1-0.7,0.6-0.5,1c0.1,0.3,0.4,0.6,0.8,0.6c0.1,0,0.1,0,0.2,0   c0.4-0.1,0.7-0.2,1.1-0.4c0.4-0.2,0.6-0.6,0.4-1C32.7,36.1,32.3,35.9,31.9,36z"></path><path d="M24.2,35.9c-0.3-0.1-0.6-0.3-0.9-0.4c-0.4-0.2-0.9,0-1.1,0.4c-0.2,0.4,0,0.9,0.4,1.1c0.3,0.2,0.7,0.3,1,0.5   c0.1,0,0.2,0.1,0.3,0.1c0.3,0,0.6-0.2,0.7-0.5C24.8,36.6,24.6,36.1,24.2,35.9z"></path><path d="M20.7,33.9c-0.3-0.2-0.5-0.4-0.8-0.6c-0.3-0.3-0.8-0.3-1.1,0.1c-0.3,0.3-0.3,0.8,0.1,1.1c0.3,0.2,0.6,0.5,0.9,0.7   c0.1,0.1,0.3,0.2,0.5,0.2c0.2,0,0.5-0.1,0.6-0.3C21.1,34.7,21.1,34.2,20.7,33.9z"></path><path d="M28.8,37.5c0-0.4-0.3-0.8-0.8-0.8c-0.3,0-0.7,0-1-0.1c-0.4,0-0.8,0.3-0.9,0.7c0,0.4,0.3,0.8,0.7,0.9c0.4,0,0.8,0.1,1.1,0.1   c0,0,0,0,0,0C28.5,38.3,28.8,38,28.8,37.5z"></path><path d="M35.4,35.8c0.3-0.2,0.6-0.5,0.8-0.8c0.3-0.3,0.3-0.8,0-1.1c-0.3-0.3-0.8-0.3-1.1,0c-0.2,0.2-0.5,0.5-0.7,0.7   c-0.3,0.3-0.4,0.8-0.1,1.1c0.2,0.2,0.4,0.3,0.6,0.3C35.1,35.9,35.2,35.9,35.4,35.8z"></path><path d="M38.4,30.2c-0.4-0.2-0.9,0-1,0.4c0,0-0.1,0.3-0.4,0.8c-0.2,0.4-0.1,0.9,0.3,1.1c0.1,0.1,0.3,0.1,0.4,0.1   c0.3,0,0.5-0.1,0.7-0.4c0.4-0.6,0.5-1,0.5-1C39,30.9,38.8,30.4,38.4,30.2z"></path><path d="M93.8,72.2c0,0-0.1,0-0.1-0.1c0,0,0,0,0,0L66.8,56.8c2.1-2.9,3.8-6,5.3-9.2c0,0,0-0.1,0-0.1c0.2-0.4,0.4-0.9,0.6-1.4   c5.8-2.2,12-8.8,13.4-13.1c1.2-3.8,1-7.2-0.5-9.3c-1.4-1.8-2.9-2.7-4.5-2.7c-0.6,0-1.7,0.4-2.6,0.7c0.2-1.5,0.4-2.8,0.5-4   c0,0,0,0,0,0c0.2-1.6,0.4-4.4,0.4-4.4c0-0.4-0.3-0.8-0.7-0.8c-0.4,0-0.8,0.3-0.8,0.7c0,0.1-0.1,1.7-0.3,3.1   C73.1,13.6,61.5,8,43.8,8c-17.5,0-26.6,5.6-29.9,8.2c-0.1-1.2-0.3-2.4-0.3-2.5c0-0.4-0.4-0.8-0.9-0.7c-0.4,0-0.8,0.4-0.7,0.9   c0,0.1,0.3,2.9,0.4,4c0,0,0,0,0,0c0.1,1,0.3,2.3,0.5,3.8c-0.8-0.3-1.7-0.6-2.1-0.6c-1.6-0.1-3.1,0.8-4.5,2.7   c-1.6,2.2-1.8,5.8-0.5,9.8c1.3,4.2,6.3,9.8,11.8,11.9C19,49.9,22,57,28.8,63.4c0.5,4.1,0.3,12.9-3.3,18.5   c-2.9,4.4-7.6,7.3-13.9,8.5c-0.4,0.1-0.7,0.5-0.6,0.9c0.1,0.4,0.5,0.7,0.9,0.6c6.8-1.3,11.8-4.4,14.9-9.2c3.8-5.8,3.9-14,3.7-17.8   c2.3,2,5.1,4,8.2,5.7c1.9,1.1,4.6,1.7,7.1,1.7c0,0,0,0,0,0c2.3-0.1,4.6-0.8,6.5-1.9c1.5-0.9,4.8-3,8.5-6.7   c-0.3,5.1,0.3,13.5,4,19.1C68,87.7,73,90.8,79.5,92c0,0,0.1,0,0.1,0c0.4,0,0.7-0.3,0.8-0.6c0.1-0.4-0.2-0.8-0.6-0.9   c-6.2-1.2-10.8-4-13.7-8.4c-4-6.1-4.1-15.6-3.6-20c0.3-0.3,0.6-0.7,0.9-1L91,76.9c0,0,0,0,0,0l0,0c0,0,0,0,0.1,0c0,0,0,0,0.1,0   c0,0,0,0,0,0c0,0,0,0,0,0c0.3,0.1,0.7,0.2,1.2,0.2c0.8,0,1.8-0.3,2.4-1.3C95.5,74.3,94.5,72.8,93.8,72.2z M78.2,23.6   c0,0,0.1,0,0.1-0.1c0.3-0.3,2.2-1,2.8-1c1,0,2.1,0.6,3.2,2c1.2,1.6,1.3,4.5,0.3,7.9C83.4,36,78.4,41.6,73.5,44   c0.6-1.6,1.2-3.3,1.5-4.6C76.5,33.7,77.5,28.2,78.2,23.6z M7.3,32.9c-1.1-3.5-1-6.6,0.3-8.4c1-1.3,2-2,3.1-2c0,0,0.1,0,0.1,0   c0.3,0,1.8,0.6,2.5,0.9c0.7,4.5,1.7,10.4,3.2,16.4c0,0,0.1,1.3,0.6,3.5C12.5,41.2,8.5,36.5,7.3,32.9z M61.3,61.1   C61.3,61.1,61.2,61.1,61.3,61.1c-4.2,4.5-8.1,7.1-9.7,8c-1.7,1-3.7,1.6-5.8,1.7c0,0,0,0-0.1,0c-2.7,0-5-0.8-6.3-1.5   c-12.7-7-17.9-17.2-20-23.4c0.1,0.1,0.3,0.1,0.4,0.1c0.2,0,0.4-0.1,0.6-0.2c0.3-0.3,0.3-0.8,0-1.1c-0.2-0.2-0.5-0.5-0.7-0.7   c-0.2-0.3-0.6-0.4-1-0.2c-0.7-2.5-0.8-4-0.8-4c0-0.1,0-0.2,0-0.3c-0.7-2.7-1.2-5.3-1.7-7.8c0.1,0.1,0.2,0.3,0.3,0.4   c0.2,0.2,0.4,0.3,0.6,0.3c0.2,0,0.4-0.1,0.5-0.2c0.3-0.3,0.4-0.8,0.1-1.1c-0.3-0.4-0.5-0.6-0.6-0.8c-0.3-0.4-0.7-0.4-1.1-0.2   c0,0-0.1,0.1-0.1,0.1c-0.9-5-1.5-9.4-1.9-12.2c2.1-1.9,10.7-8.5,29.6-8.5c18.3,0,29.9,6.1,33.6,8.4c-0.4,3.3-1,7.6-1.9,12.3   c-0.1-0.1-0.1-0.2-0.2-0.3c-0.4-0.3-0.9-0.2-1.1,0.2c-0.1,0.2-0.3,0.5-0.6,0.8c-0.3,0.3-0.2,0.8,0.1,1.1c0.1,0.1,0.3,0.2,0.5,0.2   c0.2,0,0.5-0.1,0.6-0.3c0.2-0.3,0.4-0.5,0.5-0.6c-0.5,2.4-1.1,4.9-1.8,7.5c-0.4,1.5-1.2,3.9-2,5.9c0,0,0,0,0,0   c-0.2,0-0.4,0.1-0.5,0.3c-0.2,0.3-0.4,0.5-0.7,0.7c-0.3,0.3-0.3,0.8,0,1.1c0.1,0.1,0.2,0.1,0.3,0.2c-1.4,3.2-3.2,6.2-5.2,9   c0,0-0.1,0-0.1,0l-3.5-0.7l-2-0.4c-0.3-0.1-0.7,0.1-0.8,0.4c-0.2,0.3-0.2,0.7,0.1,0.9l1.3,1.6c0,0,0,0,0,0c0,0,0,0,0,0l1.9,2.2   C61.9,60.4,61.6,60.8,61.3,61.1z M61.9,57.2L62,57l2.9,0.6c0.1,0,0.2,0.1,0.3,0.1l26.9,15.4l-1.1,1.9L63.8,59.4L61.9,57.2z    M93.3,75.1c-0.1,0.3-0.4,0.4-0.6,0.4l0.7-1.2C93.4,74.5,93.4,74.8,93.3,75.1z"></path><path d="M45.2,66.9c-0.4,0-0.8,0.4-0.8,0.8v1.1c0,0.4,0.4,0.8,0.8,0.8c0.4,0,0.8-0.4,0.8-0.8v-1.1C46,67.2,45.6,66.9,45.2,66.9z"></path><path d="M45.2,62.6c-0.4,0-0.8,0.4-0.8,0.8v1.1c0,0.4,0.4,0.8,0.8,0.8c0.4,0,0.8-0.4,0.8-0.8v-1.1C46,63,45.6,62.6,45.2,62.6z"></path><path d="M72.2,25.9c0.2-0.4,0-0.9-0.4-1.1c-0.4-0.2-0.9,0-1,0.4c0,0-0.3,0.4-1.1,0.7c-0.1-0.1-0.2-0.2-0.3-0.2c0,0,0,0-0.1,0   c-0.1-0.1-0.1-0.1-0.2-0.2c0,0-0.1-0.1-0.2-0.1c0.1-0.1,0.2-0.2,0.3-0.3c0,0,0.1-0.1,0.1-0.1c0,0,0.1-0.1,0.1-0.1   c0.6-0.9,0.6-1.6,0.5-1.8c0-0.4-0.4-0.8-0.9-0.7c-0.4,0-0.8,0.4-0.7,0.9c0,0,0,0.3-0.3,0.8c0,0,0,0,0,0.1c0,0,0,0-0.1,0.1   c-0.1,0.1-0.2,0.3-0.4,0.4c-0.5-0.3-1-0.5-1.5-0.7c0.1-0.1,0.1-0.2,0.2-0.4c0,0,0-0.1,0-0.1c0,0,0-0.1,0-0.1c0.1-0.8,0-1.5,0-1.6   c-0.1-0.4-0.5-0.7-0.9-0.7c-0.4,0.1-0.7,0.5-0.7,0.9c0,0,0.1,0.5,0,1c-0.1,0.3-0.2,0.4-0.3,0.5c0,0-0.1,0-0.1,0c0,0-0.1,0-0.1,0   c0,0,0,0,0,0c-0.1,0-0.3-0.1-0.5-0.1c-0.2,0-0.3-0.1-0.4-0.1c0-0.2,0-0.3,0.1-0.5c0,0,0,0,0,0c0,0,0,0,0,0v-0.3c0-0.3,0-0.7,0-0.9   c0-0.4-0.4-0.8-0.9-0.7c-0.4,0-0.8,0.4-0.7,0.9c0,0.1,0,0.5,0,0.7v0.3c0,0.2,0,0.3-0.1,0.5c0,0,0,0,0,0c-2.5,0-4,0.8-4.8,1.3   l-0.1,0c-0.5,0.3-1.6,0.8-2,1c-0.1,0-0.2,0.1-0.3,0.1c-0.3,0.1-0.6,0.3-0.8,0.5c-0.7,0.6-0.7,1.2-0.5,1.6c0.3,1,1.3,1.2,2.1,1.4   l0.2,0c0.5,0.1,0.8,0.3,0.9,0.3c1.6,1.5,3.5,2.1,5.1,2.3c0,0.2,0,0.3,0,0.5c-0.1,0.4,0.2,0.8,0.7,0.9c0,0,0.1,0,0.1,0   c0.4,0,0.7-0.3,0.8-0.7c0-0.1,0-0.4,0.1-0.7c0.4,0,0.9-0.1,1.1-0.1c0,0,0,0,0,0c0,0,0,0,0,0c0.3-0.1,0.7-0.2,1-0.3   c0,0.1,0,0.2,0.1,0.3c0.1,0.4,0.5,0.7,0.9,0.7c0.4-0.1,0.7-0.5,0.7-0.9c0-0.1-0.1-0.3-0.1-0.7c0.5-0.3,0.9-0.6,0.9-0.6c0,0,0,0,0,0   c0,0,0,0,0,0c0.3-0.2,0.6-0.6,0.8-0.9c0.1,0.1,0.2,0.2,0.2,0.3c0.3,0.4,0.7,0.4,1.1,0.2c0.4-0.3,0.4-0.7,0.2-1.1   c-0.1-0.2-0.4-0.5-0.6-0.8c0,0,0,0,0-0.1C71.5,27.3,72.1,26.1,72.2,25.9z M61.3,26.1C61.4,26.1,61.4,26.1,61.3,26.1   C61.4,26.2,61.2,26.2,61.3,26.1C61.2,26.1,61.3,26.1,61.3,26.1z M57.3,28.2c-0.4-0.4-1.1-0.6-1.6-0.7l-0.2,0   c-0.3-0.1-0.7-0.2-0.9-0.3c0,0,0,0,0.1-0.1c0.1-0.1,0.2-0.2,0.4-0.2c0,0,0.1,0,0.2-0.1c0.4-0.2,1.3-0.6,2.1-1.1l0.1-0.1   c0.3-0.1,0.6-0.3,1-0.5c-0.2,0.4-0.2,0.9-0.2,1.3c0,1.3,0.7,2.5,1.8,3.2C59.1,29.5,58.1,29,57.3,28.2z M62.2,28.8   c-1.3,0-2.3-1-2.3-2.2c0,0,0-0.1,0-0.1c0.2,0.7,0.8,1.2,1.5,1.2c0.8,0,1.5-0.7,1.5-1.5c0-0.8-0.6-1.4-1.3-1.5c0.2,0,0.4,0,0.7,0   c0,0,0,0,0,0c0,0,0.1,0,0.2,0l0.1,0c0.1,0,0.5,0.1,0.9,0.2c0.1,0,0.3,0,0.4,0.1c0.1,0.1,0.4,0.3,0.5,0.7c0,0,0,0.1,0,0.1   c0.1,0.3,0.2,0.6,0.2,0.9C64.5,27.8,63.4,28.8,62.2,28.8z M68,26.7c-0.1,0.3-0.3,0.5-0.4,0.7c-0.3,0.4-0.8,1-1.1,1.3   c-0.4,0.3-0.9,0.7-1.2,0.8c-0.3,0.1-0.7,0.3-1.1,0.4c1.1-0.7,1.9-1.9,1.9-3.3c0-0.4-0.1-0.8-0.2-1.1c0.4,0.2,0.9,0.4,1.3,0.7   c0,0,0,0,0.1,0c0.1,0.1,0.4,0.3,0.7,0.4c0,0,0,0,0.1,0C68,26.6,68,26.7,68,26.7C68,26.7,68,26.7,68,26.7z"></path><path d="M26,31.8c0-0.1,0-0.2,0.1-0.3c0.3,0.1,0.7,0.2,1,0.3c0,0,0,0,0,0c0,0,0,0,0,0c0.3,0,0.7,0.1,1.1,0.1c0,0.3,0,0.6,0.1,0.7   c0.1,0.4,0.4,0.7,0.8,0.7c0,0,0.1,0,0.1,0c0.4-0.1,0.7-0.5,0.7-0.9c0-0.1,0-0.3,0-0.5c1.5-0.1,3.5-0.8,5.1-2.3   c0.1-0.1,0.4-0.2,0.9-0.3l0.2,0c0.8-0.2,1.8-0.4,2.1-1.4c0.1-0.4,0.1-1-0.5-1.6c-0.2-0.2-0.5-0.4-0.8-0.5c-0.1,0-0.2-0.1-0.2-0.1   c-0.4-0.2-1.5-0.7-2-1l-0.1,0c-0.8-0.5-2.3-1.3-4.8-1.3c0,0,0,0,0,0c0-0.1,0-0.3-0.1-0.5v-0.3c0-0.3,0-0.6,0-0.7   c0-0.4-0.3-0.8-0.7-0.9c-0.4,0-0.8,0.3-0.9,0.7c0,0.1,0,0.6,0,0.9v0.3c0,0,0,0,0,0c0,0,0,0,0,0c0,0.2,0,0.4,0.1,0.5   c-0.1,0-0.3,0-0.4,0.1c-0.2,0-0.4,0.1-0.5,0.1c0,0,0,0-0.1,0c-0.1,0-0.1,0-0.1,0c0,0-0.1,0-0.1,0c-0.1-0.1-0.3-0.3-0.3-0.5   c-0.1-0.6,0-1.1,0-1.1c0.1-0.4-0.2-0.8-0.7-0.9c-0.4-0.1-0.8,0.2-0.9,0.7c0,0.1-0.1,0.8,0,1.6c0,0,0,0,0,0c0,0,0,0,0,0   c0.1,0.2,0.1,0.4,0.2,0.6c-0.1,0.1-0.3,0.1-0.4,0.2c-0.2,0.1-0.6,0.3-1.1,0.5c-0.2-0.1-0.3-0.3-0.4-0.5c0,0,0,0-0.1-0.1   c0,0,0,0,0-0.1c-0.3-0.4-0.3-0.7-0.3-0.8c0-0.4-0.3-0.8-0.7-0.8c-0.4,0-0.8,0.3-0.9,0.7c0,0.1,0,0.9,0.5,1.8c0,0,0.1,0.1,0.1,0.1   c0,0,0,0.1,0.1,0.1c0.1,0.1,0.2,0.2,0.3,0.3c-0.1,0.1-0.1,0.1-0.2,0.1c0,0,0,0,0,0c0,0,0,0-0.1,0c0,0-0.1,0-0.1,0.1   c0,0-0.1,0-0.1,0.1c0,0-0.1,0.1-0.1,0.1l0,0l0,0c-0.1,0-0.1,0.1-0.1,0.1c-0.8-0.2-1-0.6-1.1-0.7c-0.2-0.4-0.6-0.6-1-0.4   c-0.4,0.2-0.6,0.7-0.4,1.1c0.1,0.2,0.7,1.4,2.9,1.7c0,0,0,0,0,0.1c-0.3,0.3-0.5,0.6-0.6,0.8c-0.3,0.4-0.2,0.9,0.2,1.1   c0.4,0.3,0.9,0.2,1.1-0.2c0.1-0.1,0.2-0.2,0.2-0.3c0.2,0.3,0.5,0.6,0.8,0.9c0,0,0,0,0,0c0,0,0,0,0,0c0.1,0,0.5,0.4,0.9,0.6   c-0.1,0.3-0.1,0.6-0.1,0.7c-0.1,0.4,0.2,0.8,0.7,0.9C25.6,32.5,26,32.2,26,31.8z M32.6,25.5c0.4,0.2,0.7,0.3,1,0.5l0.1,0   c0.8,0.4,1.7,0.9,2.2,1.1c0,0,0.1,0,0.1,0.1c0.1,0.1,0.3,0.1,0.4,0.2c0,0,0,0,0.1,0.1c-0.2,0.1-0.6,0.2-0.9,0.3l-0.2,0   c-0.5,0.1-1.2,0.3-1.6,0.7C33,29.2,32,29.7,31.1,30c1.1-0.7,1.8-1.9,1.8-3.2C32.9,26.4,32.8,25.9,32.6,25.5z M29.8,26.3   C29.9,26.3,29.9,26.3,29.8,26.3C29.9,26.5,29.8,26.5,29.8,26.3C29.8,26.3,29.8,26.3,29.8,26.3z M26.9,25.9   C26.9,25.9,26.9,25.8,26.9,25.9c0.2-0.4,0.4-0.7,0.5-0.8c0.1,0,0.2,0,0.4-0.1c0.4-0.1,0.8-0.1,0.9-0.1l0.1,0c0.1,0,0.2,0,0.2,0   c0,0,0,0,0,0c0.2,0,0.4,0,0.7,0c-0.7,0.1-1.3,0.7-1.3,1.5c0,0.8,0.7,1.5,1.5,1.5c0.7,0,1.3-0.5,1.5-1.2c0,0,0,0.1,0,0.1   c0,1.2-1,2.2-2.3,2.2c-1.3,0-2.3-1-2.3-2.2C26.7,26.5,26.7,26.2,26.9,25.9z M24.6,28.9c-0.3-0.3-0.8-0.8-1.1-1.3   c-0.1-0.2-0.2-0.4-0.4-0.7c0,0,0,0,0,0c0,0,0,0,0-0.1c0,0,0,0,0.1,0c0.3-0.2,0.6-0.4,0.7-0.4l0.2-0.1c0.3-0.1,0.9-0.4,1.1-0.5   c-0.1,0.3-0.1,0.7-0.1,1c0,1.4,0.8,2.6,1.9,3.3c-0.4-0.1-0.8-0.3-1.1-0.4C25.6,29.6,25,29.2,24.6,28.9z"></path></g></svg>