<svg xmlns="http://www.w3.org/2000/svg" xmlns:xlink="http://www.w3.org/1999/xlink" version="1.1" x="0px" y="0px" viewBox="0 0 64 64" style="enable-background:new 0 0 64 64;" xml:space="preserve"><g><path d="M64,20.449L33,0.816L21.674,7.99C20.063,6.913,19,5.079,19,3h-2c0,3.309-2.691,6-6,6v2c1.398,0,2.682,0.484,3.703,1.288   L2,20.454v12.363l6-3.8V37c0,2.757-2.243,5-5,5v2c2.757,0,5,2.243,5,5v14h8h16h26V29.017l6,3.8V20.449z M14.87,10   c1.313-0.729,2.401-1.816,3.13-3.13c0.729,1.313,1.817,2.401,3.13,3.13c-1.313,0.729-2.401,1.816-3.13,3.13   c-0.401-0.723-0.919-1.368-1.516-1.932l-0.025-0.039l-0.011,0.007C15.97,10.719,15.446,10.32,14.87,10z M6.603,43   C7.583,42.409,8.409,41.583,9,40.603c0.591,0.98,1.417,1.807,2.397,2.397C10.417,43.591,9.591,44.417,9,45.397   C8.409,44.417,7.583,43.591,6.603,43z M18,61V35h12v26H18z M56,61H32V33H16v28h-6V49c0-2.757,2.243-5,5-5v-2c-2.757,0-5-2.243-5-5   v-9.249l23-14.567l6.447,4.083C37.811,18.949,35.527,20,33,20v2c4.962,0,9,4.037,9,9h2c0-3.396,1.892-6.357,4.676-7.889L56,27.75   V61z M43,15.581c1.099,2.39,3.03,4.32,5.418,5.419c-2.389,1.099-4.319,3.029-5.418,5.419c-1.099-2.39-3.03-4.32-5.418-5.419   C39.97,19.901,41.901,17.971,43,15.581z M62,29.183l-10.982-6.956C51.657,22.083,52.318,22,53,22v-2c-4.962,0-9-4.037-9-9h-2   c0,1.714-0.49,3.312-1.325,4.677L33,10.816L4,29.183v-7.637l12.062-7.754C16.653,14.721,17,15.82,17,17h2c0-3.309,2.691-6,6-6V9   c-0.353,0-0.697-0.037-1.033-0.095L33,3.184l29,18.367V29.183z"></path><path d="M36,45h15V33H36V45z M38,35h11v8H38V35z"></path><rect x="26" y="48" width="2" height="2"></rect><rect x="45" y="37" width="2" height="2"></rect><rect x="52" y="57" width="2" height="2"></rect><rect x="48" y="57" width="2" height="2"></rect><rect x="44" y="57" width="2" height="2"></rect></g></svg>