<svg xmlns="http://www.w3.org/2000/svg" xmlns:xlink="http://www.w3.org/1999/xlink" version="1.1" x="0px" y="0px" viewBox="0 0 100 100" enable-background="new 0 0 100 100" xml:space="preserve"><path d="M76.9050903,64.5048218c-0.0090942-0.0198975-0.0216064-0.0377197-0.031189-0.057373l-0.3347778-0.5198975  L66.1699219,47.8254395c-0.4584961-0.7099609-1.2329102-1.1337891-2.0717773-1.1337891h-2.6915894  c0.3417358-1.109436,0.5275269-2.2866821,0.5275269-3.5068359c0-6.5800781-5.3535156-11.9335938-11.934082-11.9335938  s-11.934082,5.3535156-11.934082,11.9335938c0,1.2201538,0.185791,2.3973999,0.5275269,3.5068359h-2.6915894  c-0.8393555,0-1.6137695,0.4238281-2.0722656,1.1357422L23.4629517,63.9251099l-0.3394165,0.5270386  c-0.008667,0.0180054-0.0202026,0.0342407-0.0285034,0.0524292c-0.1539307,0.3375854-0.2449341,0.7094727-0.2449341,1.1040649  v26.8330078c0,1.4335938,1.1665039,2.5996094,2.6000977,2.5996094h49.0996094c1.4335938,0,2.6000977-1.1660156,2.6000977-2.5996094  V65.6086426C77.1499023,65.2141113,77.05896,64.8423462,76.9050903,64.5048218z M35.9018555,48.6916504h3.5209961  c1.1931763,2.2825928,3.1032104,4.1251831,5.4293213,5.2438354h-6.9396973c-0.1184692,0-0.2289429,0.0581665-0.2936401,0.154541  l-2.0941772,3.1203003c-0.1519165,0.2263184,0.0153809,0.5259399,0.2936401,0.5259399h28.3636475  c0.2782593,0,0.4455566-0.2996216,0.2937012-0.5259399l-2.0942383-3.1203003  c-0.0646362-0.0963745-0.1751709-0.154541-0.2936401-0.154541h-6.9399414  c2.3261108-1.1186523,4.236145-2.9612427,5.4293213-5.2438354h3.5209961c0.1567383,0,0.3032227,0.0820313,0.3911133,0.2177734  l9.0296021,14.0214844H26.4816895l9.0290527-14.0205078C35.5991211,48.7736816,35.7451172,48.6916504,35.9018555,48.6916504z   M40.065918,43.1848145c0-5.4775391,4.456543-9.9335938,9.934082-9.9335938s9.934082,4.4560547,9.934082,9.9335938  c0,1.2357178-0.2371216,2.4144897-0.6513062,3.5068359c-0.1298218,0.3425293-0.2756348,0.6765137-0.4411011,0.9998169  c-0.1762695,0.3444214-0.3660889,0.6804199-0.5799561,1.0001831C56.4783936,51.3583984,53.4417114,53.1193848,50,53.1193848  s-6.4783936-1.7609863-8.2617188-4.4277344c-0.2138672-0.3197632-0.4036865-0.6557617-0.5799561-1.0001831  c-0.1654663-0.3233032-0.3112793-0.6572876-0.4411011-0.9998169C40.3030396,45.5993042,40.065918,44.4205322,40.065918,43.1848145z   M75.1499023,92.4416504c0,0.3310547-0.269043,0.5996094-0.6000977,0.5996094H25.4501953  c-0.3310547,0-0.6000977-0.2685547-0.6000977-0.5996094V65.6086426c0-0.074646,0.0202637-0.1433105,0.0426636-0.2105103  c0.0375366-0.1125488,0.0993652-0.2106323,0.18573-0.2883301c0.02948-0.0264893,0.0646362-0.0452271,0.0984497-0.0663452  c0.104187-0.0650635,0.2202148-0.1125488,0.3518677-0.1125488h48.9428711c0.1316528,0,0.2475586,0.0474854,0.3516846,0.1125488  c0.0338745,0.0211792,0.0692749,0.039978,0.0988159,0.0665894c0.0858154,0.0774536,0.1474609,0.1751709,0.1849365,0.2872314  c0.022583,0.0674438,0.0427856,0.1364136,0.0427856,0.2113647V92.4416504z M48.8500977,47.6729126  c-0.6472778-0.1335449-1.21875-0.4061279-1.6054688-0.7908325c-0.0854492-0.0845947-0.1876221-0.1378784-0.2891846-0.1904297  c-0.3313599-0.1713867-0.7149048-0.1721191-1.0456543,0c-0.1027222,0.0534668-0.2056274,0.1084595-0.291626,0.1953125  c-0.2214966,0.2227173-0.3311768,0.5134277-0.3327637,0.8045044c-0.0015869,0.2973022,0.1096802,0.5949707,0.3371582,0.8214722  c0.0657959,0.0654907,0.1495361,0.1168213,0.2201538,0.1787109c0.7848511,0.6879883,1.8484497,1.1496582,3.0073853,1.3031616  v0.7505493c0,0.6347656,0.5146484,1.1503906,1.1499023,1.1503906s1.1499023-0.515625,1.1499023-1.1503906v-0.8557129  c0.9152832-0.2161865,1.7111206-0.6295776,2.3042603-1.197998c0.3085938-0.2957153,0.5541382-0.6321411,0.739624-1.0001831  c0.1577759-0.3131104,0.2734375-0.6449585,0.3256836-0.9998169c0.0059204-0.0404663,0.0224609-0.0772095,0.0269165-0.1181641  c0.1069336-0.9775391-0.1923828-1.9511719-0.8427734-2.7431641c-0.6221313-0.7579346-1.5119019-1.2854004-2.5537109-1.5462036  v-3.586853c0.6471558,0.1332397,1.2189331,0.4064941,1.6064453,0.7912598  c0.4501953,0.4492188,1.1787109,0.4472656,1.6259766-0.0048828c0.4477539-0.4501953,0.4458008-1.1787109-0.0048828-1.6259766  c-0.8096313-0.8051147-1.9516602-1.3156738-3.2275391-1.4824829v-0.749939c0-0.6347656-0.5146484-1.1503906-1.1499023-1.1503906  s-1.1499023,0.515625-1.1499023,1.1503906v0.8383789c-1.8480225,0.4324341-3.2178345,1.6980591-3.3964844,3.3334961  c-0.1035156,0.9482422,0.2128906,1.9238281,0.890625,2.7490234c0.6292725,0.7670288,1.5110474,1.3269653,2.5058594,1.630127  v2.5153809V47.6729126z M48.121582,41.0871582c-0.2817383-0.34375-0.4174805-0.7128906-0.3818359-1.0400391  c0.0489502-0.4467163,0.4680176-0.8858032,1.1103516-1.1615601v2.7930908  C48.5693359,41.5152588,48.3144531,41.3220215,48.121582,41.0871582z M51.1499023,44.7079468  c0.3143921,0.1484985,0.5812378,0.3443604,0.7758789,0.5813599c0.1801758,0.2197266,0.3842773,0.5771484,0.3344727,1.0341797  c-0.0137329,0.1246338-0.0645752,0.2475586-0.1317139,0.3681641c-0.173584,0.3120117-0.5157471,0.593811-0.9786377,0.7924805  v-0.7924805V44.7079468z M28.1445313,32.6975098c0-0.5244141,0.425293-0.9501953,0.9501953-0.9501953h3.7421875v-3.7431641  c0-0.5244141,0.425293-0.9501953,0.9501953-0.9501953s0.9501953,0.4257813,0.9501953,0.9501953v3.7431641h3.7426758  c0.5249023,0,0.9501953,0.4257813,0.9501953,0.9501953s-0.425293,0.9501953-0.9501953,0.9501953h-3.7426758v3.7421875  c0,0.5244141-0.425293,0.9501953-0.9501953,0.9501953s-0.9501953-0.4257813-0.9501953-0.9501953v-3.7421875h-3.7421875  C28.5698242,33.6477051,28.1445313,33.2219238,28.1445313,32.6975098z M71.9907227,31.723877  c0.5249023,0,0.9501953,0.4257813,0.9501953,0.9501953v2.6757813h2.6757813c0.5249023,0,0.9501953,0.4257813,0.9501953,0.9501953  s-0.425293,0.9501953-0.9501953,0.9501953H72.940918v2.6757813c0,0.5244141-0.425293,0.9501953-0.9501953,0.9501953  s-0.9501953-0.4257813-0.9501953-0.9501953v-2.6757813h-2.6762695c-0.5249023,0-0.9501953-0.4257813-0.9501953-0.9501953  s0.425293-0.9501953,0.9501953-0.9501953h2.6762695v-2.6757813C71.0405273,32.1496582,71.4658203,31.723877,71.9907227,31.723877z   M50.5141602,6.7263184c0-0.5249023,0.425293-0.9501953,0.9501953-0.9501953h2.8891602V2.8869629  c0-0.5249023,0.425293-0.9501953,0.9501953-0.9501953s0.9501953,0.425293,0.9501953,0.9501953V5.776123h2.8891602  c0.5249023,0,0.9501953,0.425293,0.9501953,0.9501953s-0.425293,0.9501953-0.9501953,0.9501953h-2.8891602v2.8891602  c0,0.5249023-0.425293,0.9501953-0.9501953,0.9501953s-0.9501953-0.425293-0.9501953-0.9501953V7.6765137h-2.8891602  C50.9394531,7.6765137,50.5141602,7.2512207,50.5141602,6.7263184z M40.0029297,24.7346191  c4.1108398,0,7.4555664-3.3447266,7.4555664-7.4560547s-3.3447266-7.4560547-7.4555664-7.4560547  s-7.4555664,3.3447266-7.4555664,7.4560547S35.8920898,24.7346191,40.0029297,24.7346191z M40.0029297,11.8225098  c3.0083008,0,5.4555664,2.4477539,5.4555664,5.4560547s-2.4472656,5.4560547-5.4555664,5.4560547  s-5.4555664-2.4477539-5.4555664-5.4560547S36.9946289,11.8225098,40.0029297,11.8225098z M38.4257813,19.4104004  c-0.2924805-0.2915039-0.7680664-0.2915039-1.0605469,0.0029297c-0.2919922,0.293457-0.2910156,0.7685547,0.0029297,1.0605469  c0.4752197,0.4729614,1.1410522,0.7757568,1.8847656,0.8852539v0.3833008c0,0.4140625,0.3359375,0.75,0.75,0.75  s0.75-0.3359375,0.75-0.75v-0.4495239c1.0894165-0.2759399,1.8980103-1.0280762,2.0048828-2.0065308  c0.0649414-0.5961914-0.1176758-1.1899414-0.5136719-1.6728516c-0.3668823-0.4465942-0.8841553-0.7645264-1.4912109-0.9265747  V14.713501c0.3337402,0.0818481,0.6247559,0.2318115,0.8271484,0.4327393  c0.2924805,0.2915039,0.7680664,0.2905273,1.0605469-0.0029297c0.2919922-0.293457,0.2910156-0.7685547-0.0029297-1.0605469  c-0.4752197-0.4729614-1.1410522-0.7758179-1.8847656-0.8853149v-0.3827515c0-0.4140625-0.3359375-0.75-0.75-0.75  s-0.75,0.3359375-0.75,0.75v0.4467163c-1.0894775,0.276001-1.8979492,1.0299072-2.0048828,2.0093384  c-0.0629883,0.578125,0.1293945,1.1733398,0.5415039,1.675293c0.3694458,0.4499512,0.8841553,0.7785034,1.4633789,0.9653931  v1.9317017C38.9191895,19.7612915,38.6281738,19.6113281,38.4257813,19.4104004z M41.2666016,19.1237793  c-0.0237427,0.2162476-0.2163086,0.4310913-0.5136719,0.5819702v-1.4049683  c0.1295776,0.0744629,0.2461548,0.1600342,0.3320313,0.2644043C41.1826172,18.6843262,41.293457,18.8776855,41.2666016,19.1237793z   M38.9487305,15.9943848c-0.1542969-0.1879883-0.2285156-0.387207-0.2094727-0.5610352  c0.0237427-0.2173462,0.2160034-0.4337769,0.5136719-0.585144v1.4135742  C39.1383667,16.1829834,39.0324097,16.0961914,38.9487305,15.9943848z M55.3203125,22.7746582  c0,4.7070313,3.8291016,8.5361328,8.5361328,8.5361328c4.706543,0,8.5356445-3.8291016,8.5356445-8.5361328  c0-4.706543-3.8291016-8.5356445-8.5356445-8.5356445C59.1494141,14.2390137,55.3203125,18.0681152,55.3203125,22.7746582z   M70.3920898,22.7746582c0,3.6044922-2.9316406,6.5361328-6.5356445,6.5361328s-6.5361328-2.9316406-6.5361328-6.5361328  c0-3.6040039,2.9321289-6.5356445,6.5361328-6.5356445S70.3920898,19.1706543,70.3920898,22.7746582z M61.9282227,25.3527832  c-0.293457-0.2919922-0.7680664-0.2929688-1.0605469,0.0019531c-0.2929688,0.2929688-0.2919922,0.7675781,0.0009766,1.0605469  c0.5495605,0.5481567,1.3601685,0.9078369,2.237793,1.0167236v0.5535889c0,0.4140625,0.3359375,0.75,0.75,0.75  s0.75-0.3359375,0.75-0.75v-0.6245728c1.2692261-0.2887573,2.2189331-1.1396484,2.3413086-2.2562866  c0.0722656-0.6611328-0.1308594-1.3212891-0.5717773-1.8583984c-0.4292603-0.5231323-1.0471191-0.8829346-1.7695313-1.057312  V19.631897c0.4749146,0.0894775,0.8966064,0.2841797,1.1791992,0.5651245  c0.293457,0.2915039,0.7680664,0.2915039,1.0605469-0.0029297c0.2919922-0.293457,0.2910156-0.7685547-0.0029297-1.0605469  c-0.550415-0.5476685-1.3605347-0.9072876-2.2368164-1.0162354V17.564209c0-0.4140625-0.3359375-0.75-0.75-0.75  s-0.75,0.3359375-0.75,0.75v0.6126099c-1.2738037,0.2868042-2.2192993,1.1486816-2.3413086,2.2677612  c-0.0698242,0.6416016,0.1445313,1.3027344,0.6040039,1.8623047c0.4350586,0.5299683,1.0465088,0.9174194,1.7373047,1.1217041  v2.4891357C62.6311035,25.8285522,62.2097168,25.6338501,61.9282227,25.3527832z M65.456543,24.9416504  c-0.036377,0.3339233-0.3607178,0.6600342-0.8500977,0.8540649v-2.0350342  c0.2484741,0.1075439,0.460022,0.2540283,0.6103516,0.4368286C65.4018555,24.4240723,65.4848633,24.6809082,65.456543,24.9416504z   M62.5283203,21.3547363c-0.2011719-0.2446289-0.2978516-0.5102539-0.2719727-0.7470703  c0.036499-0.3341064,0.3595581-0.661377,0.8500977-0.8554688V21.8125  C62.8807373,21.6914063,62.6796875,21.5390625,62.5283203,21.3547363z"></path></svg>