<svg xmlns="http://www.w3.org/2000/svg" xmlns:xlink="http://www.w3.org/1999/xlink" version="1.1" x="0px" y="0px" viewBox="0 0 64 64" style="enable-background:new 0 0 64 64;" xml:space="preserve"><path d="M39,48H6c-3.309,0-6,2.691-6,6s2.691,6,6,6h51c0.266,0,0.521-0.106,0.709-0.295C57.966,59.447,64,53.322,64,48  c0-5.01-2.617-8-7-8s-7,2.99-7,8c0,3.69,2.898,7.761,4.762,10H6c-2.206,0-4-1.794-4-4s1.794-4,4-4h33c3.309,0,6-2.691,6-6  s-2.691-6-6-6H19c-2.206,0-4-1.794-4-4s1.794-4,4-4h39c3.309,0,6-2.691,6-6s-2.691-6-6-6H47.444c0.181-0.31,0.322-0.644,0.414-1H51  c0.553,0,1-0.447,1-1v-6c0-0.553-0.447-1-1-1h-2.323l-1.748-4.371C46.776,4.249,46.409,4,46,4h-4V1c0-0.553-0.447-1-1-1H25  c-0.553,0-1,0.447-1,1v6h-2v2h2v2h-4v2h4v3c0,0.553,0.447,1,1,1h3.142c0.092,0.356,0.233,0.69,0.414,1H9.238  C11.102,15.761,14,11.69,14,8c0-5.01-2.617-8-7-8S0,2.99,0,8c0,5.322,6.034,11.447,6.291,11.705C6.479,19.894,6.734,20,7,20h51  c2.206,0,4,1.794,4,4s-1.794,4-4,4H19c-3.309,0-6,2.691-6,6s2.691,6,6,6h20c2.206,0,4,1.794,4,4S41.206,48,39,48z M57,42  c3.225,0,5,2.131,5,6c0,3.523-3.471,7.811-5,9.529c-1.529-1.719-5-6.006-5-9.529C52,44.131,53.775,42,57,42z M35.858,17h4.284  c0.092,0.356,0.233,0.69,0.414,1h-5.112C35.625,17.69,35.766,17.356,35.858,17z M42,16c0-1.103,0.897-2,2-2s2,0.897,2,2  s-0.897,2-2,2S42,17.103,42,16z M45.323,6l1.748,4.371C47.224,10.751,47.591,11,48,11h2v4h-2.127  c-0.035-0.136-0.089-0.264-0.138-0.395c-0.024-0.064-0.04-0.13-0.067-0.193c-0.096-0.22-0.209-0.431-0.341-0.628  c-0.029-0.044-0.066-0.082-0.098-0.125c-0.109-0.151-0.225-0.295-0.354-0.429c-0.059-0.061-0.123-0.114-0.185-0.171  c-0.115-0.105-0.232-0.205-0.359-0.296c-0.074-0.054-0.15-0.103-0.228-0.151c-0.129-0.08-0.262-0.152-0.401-0.218  c-0.082-0.039-0.163-0.078-0.249-0.112c-0.153-0.06-0.312-0.106-0.473-0.147c-0.078-0.02-0.152-0.045-0.231-0.06  C44.506,12.029,44.257,12,44,12c-0.246,0-0.484,0.03-0.718,0.073c-0.057,0.01-0.113,0.022-0.17,0.034  c-0.227,0.052-0.45,0.116-0.661,0.206c-0.012,0.005-0.023,0.012-0.035,0.018c-0.143,0.062-0.282,0.129-0.416,0.207V6H45.323z M26,2  h14v3v10h-4.127c-0.035-0.136-0.089-0.264-0.138-0.395c-0.024-0.064-0.04-0.13-0.067-0.193c-0.096-0.22-0.209-0.431-0.341-0.628  c-0.029-0.044-0.066-0.082-0.098-0.125c-0.109-0.151-0.225-0.295-0.354-0.429c-0.059-0.061-0.123-0.114-0.185-0.171  c-0.115-0.105-0.232-0.205-0.359-0.296c-0.074-0.054-0.15-0.103-0.228-0.151c-0.129-0.08-0.262-0.152-0.401-0.218  c-0.082-0.039-0.163-0.078-0.249-0.112c-0.153-0.06-0.312-0.106-0.473-0.147c-0.078-0.02-0.152-0.045-0.231-0.06  C32.506,12.029,32.257,12,32,12s-0.506,0.029-0.75,0.076c-0.079,0.015-0.154,0.041-0.231,0.06c-0.162,0.041-0.32,0.087-0.473,0.147  c-0.085,0.034-0.166,0.073-0.249,0.112c-0.138,0.066-0.272,0.137-0.401,0.218c-0.078,0.049-0.154,0.097-0.228,0.151  c-0.126,0.091-0.244,0.191-0.359,0.296c-0.062,0.057-0.126,0.11-0.185,0.171c-0.129,0.134-0.245,0.278-0.354,0.429  c-0.031,0.043-0.068,0.081-0.098,0.125c-0.132,0.198-0.246,0.408-0.341,0.628c-0.027,0.062-0.043,0.129-0.067,0.193  c-0.049,0.13-0.103,0.258-0.138,0.395H26V2z M30,16c0-1.103,0.897-2,2-2s2,0.897,2,2s-0.897,2-2,2S30,17.103,30,16z M2,8  c0-3.869,1.775-6,5-6s5,2.131,5,6c0,3.523-3.471,7.811-5,9.529C5.471,15.811,2,11.523,2,8z"></path><path d="M10,7c0-1.654-1.346-3-3-3S4,5.346,4,7s1.346,3,3,3S10,8.654,10,7z M6,7c0-0.552,0.448-1,1-1s1,0.448,1,1S7.552,8,7,8  S6,7.552,6,7z"></path><path d="M60,47c0-1.654-1.346-3-3-3s-3,1.346-3,3s1.346,3,3,3S60,48.654,60,47z M56,47c0-0.552,0.448-1,1-1s1,0.448,1,1  s-0.448,1-1,1S56,47.552,56,47z"></path><rect x="62" y="62.001" width="2" height="2"></rect><rect x="58" y="62.001" width="2" height="2"></rect><rect x="54" y="62.001" width="2" height="2"></rect></svg>