<svg xmlns="http://www.w3.org/2000/svg" data-name="Layer 1" viewBox="0 0 64 64" x="0px" y="0px"><title>trust-love-reliance-belief-charm</title><path d="M28,28H24a.99974.99974,0,0,0-1,1v7.42969A.571.571,0,0,1,22.42969,37h-.5586A3.9992,3.9992,0,1,0,14,36a3.92355,3.92355,0,0,0,.12939,1h-.55908A.571.571,0,0,1,13,36.42969V29a.99974.99974,0,0,0-1-1H8a.99974.99974,0,0,0-1,1v8a6.01033,6.01033,0,0,0,5,5.917V60a.99974.99974,0,0,0,1,1H23a.99974.99974,0,0,0,1-1V42.917A6.01033,6.01033,0,0,0,29,37V29A.99974.99974,0,0,0,28,28Zm-1,9a4.00427,4.00427,0,0,1-4,4,.99974.99974,0,0,0-1,1V59H19V48H17V59H14V42a.99974.99974,0,0,0-1-1,4.00427,4.00427,0,0,1-4-4V30h2v6.42969A2.57327,2.57327,0,0,0,13.57031,39h2.208a1,1,0,0,0,.74316-1.669,1.99461,1.99461,0,0,1,1.8379-3.30078,2.01325,2.01325,0,0,1,1.59423,1.53516,1.9751,1.9751,0,0,1-.47509,1.76562A.99975.99975,0,0,0,20.22168,39h2.208A2.57327,2.57327,0,0,0,25,36.42969V30h2Z"></path><rect x="47" y="24" width="2" height="2"></rect><path d="M40,13v2a7.00818,7.00818,0,0,1,7,7h2A9.01016,9.01016,0,0,0,40,13Z"></path><rect x="43" y="26" width="2" height="2"></rect><path d="M45,24a7.00818,7.00818,0,0,0-7-7v2a5.00588,5.00588,0,0,1,5,5Z"></path><path d="M59.17078,35.41089A3.961,3.961,0,0,0,60,33a4,4,0,0,0-8,0,3.95376,3.95376,0,0,0,.55634,2h-.26093a1.50676,1.50676,0,0,1-1.2124-.60254l-3.24707-4.94629a1.00082,1.00082,0,0,0-1.39063-.2832l-3,2a.99985.99985,0,0,0-.2959,1.35742l4.27149,6.9082A3.5105,3.5105,0,0,0,50.34717,41H51v4.64941L47.21924,50.375A.99943.99943,0,0,0,47,51v9a.99974.99974,0,0,0,1,1h4a.99974.99974,0,0,0,1-1V53.5l.50336-.37756.51617,2.07385,1,5A1.00084,1.00084,0,0,0,56,61a.97812.97812,0,0,0,.24268-.03027l4-1a.99927.99927,0,0,0,.73779-1.166l-.96631-4.832.97559-6.83008-.0224-.00317A.96841.96841,0,0,0,61,47V38.41992A3.40975,3.40975,0,0,0,59.17078,35.41089ZM56,31a2,2,0,1,1-2,2A2.00229,2.00229,0,0,1,56,31Zm.7749,27.77539-.80469-4.0166-.73065-2.93854,3.42926-2.572-.65857,4.61011a.99436.99436,0,0,0,.00928.33789l.813,4.06445ZM59,46.5l-7.6001,5.7002A.999.999,0,0,0,51,53v6H49V51.35059L52.78076,46.625A.99943.99943,0,0,0,53,46V40a.99974.99974,0,0,0-1-1H50.34717a1.50358,1.50358,0,0,1-1.24365-.64648L45.35889,32.2959l1.35791-.90528,2.71679,4.1377A3.52759,3.52759,0,0,0,52.29541,37h5.28467A1.42152,1.42152,0,0,1,59,38.41992Z"></path><path d="M36.87939,10.97656a3.84926,3.84926,0,0,0-2.89868-.96185,8.79855,8.79855,0,0,0-2.60717-6.41608,9.03017,9.03017,0,0,0-12.66553-.001L18,4.2959l-.70654-.69727a9.032,9.032,0,0,0-12.667,0,8.83,8.83,0,0,0,0,12.57227l12.66993,12.54a1.00087,1.00087,0,0,0,1.40722,0l10.7666-10.65406,1.85791,1.68433a1.00094,1.00094,0,0,0,1.34327,0l4.208-3.81445a3.29369,3.29369,0,0,0,0-4.9502ZM18,26.59277,6.03369,14.749a6.82835,6.82835,0,0,1,0-9.72851,7.02415,7.02415,0,0,1,9.854.001l1.41015,1.39063a.9985.9985,0,0,0,1.4043,0l1.41162-1.3916a7.02236,7.02236,0,0,1,9.85254,0A6.79931,6.79931,0,0,1,31.93408,10.7a3.88433,3.88433,0,0,0-4.81347.27655,3.29369,3.29369,0,0,0,0,4.9502l.86535.78448ZM35.53662,14.44434,32,17.65039l-3.53613-3.20605a1.2941,1.2941,0,0,1,0-1.98536,1.9133,1.9133,0,0,1,2.48193,0l.38232.34668a1.00016,1.00016,0,0,0,1.34376,0l.38232-.34668a1.91564,1.91564,0,0,1,2.48193-.001,1.29558,1.29558,0,0,1,.00049,1.98633Z"></path><path d="M26.61084,9.209l1.22168-1.584a3.00018,3.00018,0,1,0-3.665,4.751l1.22168-1.584a.9998.9998,0,1,1,1.22168-1.583Z"></path><rect x="58" y="1" width="2" height="2"></rect><rect x="58" y="5" width="2" height="2"></rect><rect x="60" y="3" width="2" height="2"></rect><rect x="56" y="3" width="2" height="2"></rect></svg>